<?xml version="1.0" encoding="utf-8" ?><svg xmlns="http://www.w3.org/2000/svg" xmlns:xlink="http://www.w3.org/1999/xlink" width="1024" height="1024" viewBox="0 0 1024 1024"><path d="M0 0L1024 0L1024 1024L0 1024L0 0Z"/><path d="M202.334 404.496L226.713 404.5C227.649 409.637 229.094 415.4 230.302 420.515C232.277 421.559 240.149 423.245 242.989 424.204C247.021 420.176 251.001 416.098 254.931 411.971C260.691 414.985 270.98 420.288 276.179 423.976C274.509 429.419 272.701 435.032 271.206 440.509C274.136 443.364 277.444 446.451 280.247 449.383L296.773 444.338C298.536 447.217 301.465 451.698 302.784 454.633C304.713 457.104 307.558 462.677 309.109 465.632C304.929 469.499 300.785 473.406 296.679 477.352C297.929 481.535 299.318 485.819 300.11 490.101C305.672 491.321 311.227 492.573 316.774 493.857C317.076 502.061 317 510.002 316.936 518.2L300.139 522.068C299.141 526.625 298.196 530.143 296.854 534.616C300.986 538.428 305.242 542.313 309.167 546.331C305.279 553.544 301.199 560.652 296.93 567.646C291.419 565.981 285.76 564.336 280.286 562.593L271.218 571.42C272.941 576.879 274.611 582.355 276.228 587.846C269.292 592.014 262.239 595.985 255.079 599.754C251.163 595.792 247.293 591.783 243.472 587.729C239.096 588.954 235.19 590.113 230.691 590.876C229.189 596.376 227.85 601.918 226.676 607.497C218.545 607.678 210.412 607.677 202.282 607.495C201.025 601.999 199.721 596.513 198.369 591.039C194.003 589.988 189.942 589.01 185.627 587.723L173.743 599.914C172.659 599.303 168.291 596.942 167.609 596.314C163.312 594.367 156.736 590.338 152.732 587.849C154.479 582.395 156.11 576.905 157.625 571.381C154.525 568.495 151.915 565.821 148.984 562.755C143.304 564.165 138.001 565.802 132.413 567.509C128.065 560.804 124.08 553.545 120.354 546.477C124.501 542.59 128.599 538.651 132.647 534.661C131.612 531.764 130.945 528.994 130.183 526.018C129.882 525.032 129.566 524.051 129.235 523.075C126.507 520.745 117.297 519.145 113.309 518.186C112.855 510.176 113.011 501.802 113.138 493.789C118.872 492.67 123.77 491.436 129.414 489.97C130.286 485.825 131.537 481.515 132.652 477.409C128.418 473.568 124.292 469.609 120.278 465.538C124.103 458.401 128.387 451.315 132.509 444.328C137.865 446.096 143.546 447.702 148.967 449.323C151.863 446.193 154.831 443.372 157.898 440.423C156.151 434.868 154.477 429.29 152.876 423.691C159.831 419.621 166.899 415.746 174.072 412.072C177.929 416.272 181.522 420.135 185.571 424.162C189.929 422.739 193.972 421.776 198.41 420.689C199.827 415.413 201.065 409.828 202.334 404.496Z"/><defs><linearGradient id="gradient_0" gradientUnits="userSpaceOnUse" x1="288.35983" y1="574.27417" x2="229.12885" y2="519.09222"><stop offset="0" stop-color="#F55581"/><stop offset="1" stop-color="#9D6ABD"/></linearGradient></defs><path fill="url(#gradient_0)" d="M296.242 454.99C295.744 452.979 295.793 453.076 296.277 451.027C297.023 450.228 296.557 450.517 297.868 450.439C301.073 451.987 300.166 452.991 302.784 454.633C304.713 457.104 307.558 462.677 309.109 465.632C304.929 469.499 300.785 473.406 296.679 477.352C297.929 481.535 299.318 485.819 300.11 490.101C305.672 491.321 311.227 492.573 316.774 493.857C317.076 502.061 317 510.002 316.936 518.2L300.139 522.068C299.141 526.625 298.196 530.143 296.854 534.616C300.986 538.428 305.242 542.313 309.167 546.331C305.279 553.544 301.199 560.652 296.93 567.646C291.419 565.981 285.76 564.336 280.286 562.593L271.218 571.42C272.941 576.879 274.611 582.355 276.228 587.846C269.292 592.014 262.239 595.985 255.079 599.754C251.163 595.792 247.293 591.783 243.472 587.729C239.096 588.954 235.19 590.113 230.691 590.876C229.189 596.376 227.85 601.918 226.676 607.497C218.545 607.678 210.412 607.677 202.282 607.495C201.025 601.999 199.721 596.513 198.369 591.039C194.003 589.988 189.942 589.01 185.627 587.723L173.743 599.914C172.659 599.303 168.291 596.942 167.609 596.314C166.384 594.085 165.511 594.022 164.048 590.653L164.331 590.032L165.648 589.758C167.1 590.222 168.003 590.452 169.496 590.792C170.818 591.407 171.157 591.533 172.559 591.933C174.865 590.278 181.21 583.11 183.608 580.533C190.824 583.026 196.063 584.439 203.592 585.721C204.7 590.873 206.109 596.36 207.345 601.515L221.724 601.526C223.008 596.27 224.22 590.996 225.359 585.707C233.092 584.308 237.702 583.238 245.098 580.633C248.819 584.477 252.57 588.293 256.35 592.08C259.861 590.478 265.353 587.229 268.888 585.285C267.495 580.01 265.792 574.662 264.2 569.431C269.557 564.837 273.324 561.197 277.884 555.821C283.535 557.305 288.789 558.671 294.356 560.473C296.44 556.303 299.086 551.792 301.414 547.735C297.574 543.912 293.574 540.233 289.69 536.357C292.009 529.763 293.731 523.765 294.687 516.814C298.314 516.374 306.985 514.094 310.942 513.149L310.932 498.801L294.676 495.034C293.559 487.9 291.736 482.204 289.545 475.401C293.389 471.687 297.256 467.997 301.147 464.331C299.54 461.122 297.779 458.385 296.242 454.99Z"/><defs><linearGradient id="gradient_1" gradientUnits="userSpaceOnUse" x1="181.63052" y1="472.29245" x2="141.91095" y2="435.37479"><stop offset="0" stop-color="#51ACDC"/><stop offset="1" stop-color="#24DCE8"/></linearGradient></defs><path fill="url(#gradient_1)" d="M202.334 404.496L226.713 404.5C227.649 409.637 229.094 415.4 230.302 420.515L229.733 421.364C227.854 420.431 228.673 420.376 227.142 420.834C226.107 422.581 225.79 423.583 226.846 425.479C226.657 426.007 226.805 425.859 226.574 426.046C224.047 424.148 222.387 414.017 221.534 410.303C216.868 410.373 212.017 410.517 207.368 410.39L203.38 426.179C196.68 427.065 190.116 428.783 183.84 431.291C180.053 427.402 176.173 423.306 172.335 419.493C168.269 421.824 164.191 424.134 160.1 426.421L164.929 442.454C159.9 446.696 155.228 451.344 150.959 456.351C145.757 454.716 140.522 453.184 135.258 451.757C132.933 455.706 130.097 460.254 127.964 464.245C131.86 468.062 135.799 471.834 139.782 475.559C137.49 482.564 136.037 487.989 134.61 495.345C129.544 496.27 123.689 498.068 118.947 498.786L118.956 513.244C122.274 514.02 132.947 515.967 134.707 517.886L135.072 519.797C134.488 525.069 133.447 522.648 130.794 525.866L130.183 526.018C129.882 525.032 129.566 524.051 129.235 523.075C126.507 520.745 117.297 519.145 113.309 518.186C112.855 510.176 113.011 501.802 113.138 493.789C118.872 492.67 123.77 491.436 129.414 489.97C130.286 485.825 131.537 481.515 132.652 477.409C128.418 473.568 124.292 469.609 120.278 465.538C124.103 458.401 128.387 451.315 132.509 444.328C137.865 446.096 143.546 447.702 148.967 449.323C151.863 446.193 154.831 443.372 157.898 440.423C156.151 434.868 154.477 429.29 152.876 423.691C159.831 419.621 166.899 415.746 174.072 412.072C177.929 416.272 181.522 420.135 185.571 424.162C189.929 422.739 193.972 421.776 198.41 420.689C199.827 415.413 201.065 409.828 202.334 404.496Z"/><defs><linearGradient id="gradient_2" gradientUnits="userSpaceOnUse" x1="174.62511" y1="579.80316" x2="121.44606" y2="536.98749"><stop offset="0" stop-color="#986BBC"/><stop offset="1" stop-color="#51A6D9"/></linearGradient></defs><path fill="url(#gradient_2)" d="M135.072 519.797C136.351 525.533 137.577 531.028 139.856 536.488C136.429 539.788 131.113 544.641 128.003 548.028C130.237 552.001 132.644 556.515 135.091 560.309C140.303 558.805 145.79 557.312 150.952 555.721C155.585 560.611 159.749 564.702 164.653 569.328L160.183 585.314C163.021 586.965 166.823 589.031 169.496 590.792C168.003 590.452 167.1 590.222 165.648 589.758L164.331 590.032L164.048 590.653C165.511 594.022 166.384 594.085 167.609 596.314C163.312 594.367 156.736 590.338 152.732 587.849C154.479 582.395 156.11 576.905 157.625 571.381C154.525 568.495 151.915 565.821 148.984 562.755C143.304 564.165 138.001 565.802 132.413 567.509C128.065 560.804 124.08 553.545 120.354 546.477C124.501 542.59 128.599 538.651 132.647 534.661C131.612 531.764 130.945 528.994 130.183 526.018L130.794 525.866C133.447 522.648 134.488 525.069 135.072 519.797Z"/><defs><linearGradient id="gradient_3" gradientUnits="userSpaceOnUse" x1="298.7963" y1="448.86026" x2="228.61386" y2="416.35617"><stop offset="0" stop-color="#9766BF"/><stop offset="1" stop-color="#54A1D6"/></linearGradient></defs><path fill="url(#gradient_3)" d="M254.931 411.971C260.691 414.985 270.98 420.288 276.179 423.976C274.509 429.419 272.701 435.032 271.206 440.509C274.136 443.364 277.444 446.451 280.247 449.383L296.773 444.338C298.536 447.217 301.465 451.698 302.784 454.633C300.166 452.991 301.073 451.987 297.868 450.439C296.557 450.517 297.023 450.228 296.277 451.027C295.793 453.076 295.744 452.979 296.242 454.99C295.34 453.6 295.043 452.894 293.629 452.007C290.152 452.672 282.124 455.343 278.109 456.49C273.758 451.082 269.383 446.976 264.303 442.355L268.825 426.498L256.383 419.446C252.645 423.411 248.533 427.401 244.669 431.271C238.807 428.763 232.749 427.527 226.574 426.046C226.805 425.859 226.657 426.007 226.846 425.479C225.79 423.583 226.107 422.581 227.142 420.834C228.673 420.376 227.854 420.431 229.733 421.364L230.302 420.515C232.277 421.559 240.149 423.245 242.989 424.204C247.021 420.176 251.001 416.098 254.931 411.971Z"/><path d="M154.023 535.959C141.406 510.518 146.031 479.904 165.6 459.325C185.168 438.746 215.511 432.588 241.554 443.909C268.968 455.827 285.303 484.33 281.727 514.007C278.151 543.685 255.513 567.492 226.053 572.556C196.593 577.62 167.304 562.739 154.023 535.959Z"/><defs><linearGradient id="gradient_4" gradientUnits="userSpaceOnUse" x1="261.91931" y1="552.17609" x2="194.93753" y2="486.9321"><stop offset="0" stop-color="#DE5A95"/><stop offset="1" stop-color="#5D85D6"/></linearGradient></defs><path fill="url(#gradient_4)" d="M240.95 450.15L241.349 449.533C239.132 448.541 235.974 447.325 237.144 443.982C239.481 443.204 239.106 445.017 241.554 443.909C268.968 455.827 285.303 484.33 281.727 514.007C278.151 543.685 255.513 567.492 226.053 572.556C196.593 577.62 167.304 562.739 154.023 535.959C154.338 532.386 153.107 533.908 152.802 530.424C153.61 528.986 154.355 528.823 155.848 528.096C156.629 529.504 157.228 530.662 157.932 532.111L158.857 532.386C170.525 556.883 196.834 570.874 223.668 566.853C250.502 562.831 271.554 541.742 275.529 514.901C279.504 488.06 265.467 461.775 240.95 450.15Z"/><defs><linearGradient id="gradient_5" gradientUnits="userSpaceOnUse" x1="196.7327" y1="488.42719" x2="166.69344" y2="459.22897"><stop offset="0" stop-color="#6492D4"/><stop offset="1" stop-color="#40C6E0"/></linearGradient></defs><path fill="url(#gradient_5)" d="M154.023 535.959C141.406 510.518 146.031 479.904 165.6 459.325C185.168 438.746 215.511 432.588 241.554 443.909C239.106 445.017 239.481 443.204 237.144 443.982C235.974 447.325 239.132 448.541 241.349 449.533L240.95 450.15C217.376 438.972 189.319 443.839 170.887 462.303C152.455 480.767 147.638 508.832 158.857 532.386L157.932 532.111C157.228 530.662 156.629 529.504 155.848 528.096C154.355 528.823 153.61 528.986 152.802 530.424C153.107 533.908 154.338 532.386 154.023 535.959Z"/><defs><linearGradient id="gradient_6" gradientUnits="userSpaceOnUse" x1="224.29906" y1="540.92291" x2="178.66425" y2="493.78183"><stop offset="0" stop-color="#BD5AAF"/><stop offset="1" stop-color="#568CD4"/></linearGradient></defs><path fill="url(#gradient_6)" d="M194.958 476.48L209.386 476.568C217.666 495.813 226.204 514.946 234.999 533.961L220.204 533.93L214.938 521.722L211.125 521.658L189.373 521.809L184.277 533.999L170.43 534.005C177.725 515.905 188.777 494.16 194.958 476.48Z"/><path d="M201.875 491.409C203.491 493.7 209.09 507.944 210.48 511.343L203.25 511.376L193.693 511.342C196.499 504.827 199.187 497.994 201.875 491.409Z"/><defs><linearGradient id="gradient_7" gradientUnits="userSpaceOnUse" x1="257.45529" y1="529.74286" x2="235.08836" y2="481.4314"><stop offset="0" stop-color="#D65B9D"/><stop offset="1" stop-color="#906ECE"/></linearGradient></defs><path fill="url(#gradient_7)" d="M247.106 477.006L253.188 476.976L253.125 533.834L239.143 533.946C238.892 522.916 238.481 502.151 239.057 491.188L238.859 477L247.106 477.006Z"/><path fill="#7578CC" d="M238.859 477L247.106 477.006C246.106 477.38 245.111 477.764 244.119 478.157C238.516 480.392 239.858 486.364 239.057 491.188L238.859 477Z"/><path fill="#FEFEFE" d="M453.972 462.098C460.335 461.597 461.557 463.195 466.519 466.928L466.943 466.688C466.887 465.3 466.718 464.496 467.31 463.24C469.426 462.702 475.948 462.954 478.493 462.982L478.602 488.059C478.623 495.248 479.529 505.183 475.459 511.123C467.988 522.029 453.114 520.034 443.696 513.693L443.445 512.772C444.355 510.748 446.933 507.983 448.447 506.182C453.435 508.938 463.85 512.039 465.96 503.89C466.277 502.668 466.486 501.176 465.816 500.062C463.738 499.794 460.977 502.245 458.898 502.582C435.809 506.327 431.808 466.855 453.972 462.098Z"/><path d="M459.048 472.058C468.296 472.912 467.934 483.252 465.381 490.164C464.559 492.391 461.809 493.02 459.705 493.594C449.091 490.603 449.55 475.29 459.048 472.058Z"/><path fill="#7578CC" d="M798.391 462.139C806.664 461.656 807.139 465.901 810.489 466.323C810.69 463.997 810.207 464.856 811.483 463.411C814.325 462.427 819.106 462.948 822.33 463.045C822.485 473.777 822.185 484.588 822.248 495.327C822.266 498.371 822.286 501.753 821.789 504.757C821.407 507.2 820.496 509.531 819.119 511.585C814.531 518.301 806.317 519.347 798.802 518.707C793.977 518.296 790.461 515.73 786.648 513.073C787.614 511.242 790.325 508.128 791.733 506.4C796.333 509.158 803.234 511.746 807.788 507.309C810.49 504.677 810.135 501.821 810.177 498.318C786.384 519.482 769.523 467.293 798.391 462.139Z"/><path d="M800.999 472.488C804.398 472.232 807.825 472.389 809.333 475.877C811.993 482.031 811.976 490.092 805.45 493.358C794.088 494.275 792.754 478.545 800.999 472.488Z"/><path fill="#FEFEFE" d="M352.567 449.44C364.703 449.159 377.861 449.424 390.075 449.442L390.032 459.476L365.246 459.526L365.242 470.49L387.305 470.498L387.173 480.387L366.047 480.456L365.706 480.764C365.112 482.69 365.425 489.865 365.459 492.287L390.173 492.449L390.202 502.524C377.672 502.6 365.141 502.601 352.611 502.527L352.567 449.44Z"/><defs><linearGradient id="gradient_8" gradientUnits="userSpaceOnUse" x1="745.26978" y1="494.50983" x2="714.42285" y2="470.52866"><stop offset="0" stop-color="#47A9DA"/><stop offset="1" stop-color="#31C6E0"/></linearGradient></defs><path fill="url(#gradient_8)" d="M728.56 462.141C732.594 461.955 736.848 462.7 740.284 464.663C753.583 472.263 752.888 495.62 738.484 501.73C736.113 502.735 734.297 503.045 731.841 503.472C704.795 504.089 702.188 465.822 728.56 462.141Z"/><path d="M728.006 472.03C739.329 470.604 740.726 487.091 732.603 493.454C719.906 494.295 720.304 477.859 728.006 472.03Z"/><path fill="#7578CC" d="M845.699 462.105C846.487 462.062 847.276 462.031 848.065 462.011C863.697 461.653 867.247 472.837 867.292 485.983C863.549 486.044 843.674 485.532 841.7 486.606C840.991 494.222 851.505 495.766 857.371 490.26L857.8 489.85L863.161 492.758C864.551 493.359 864.65 493.309 865.75 494.306C865.93 497.858 861.108 500.335 858.38 501.571C846.746 507.059 831.523 500.982 829.178 487.677C826.821 474.303 832.402 464.759 845.699 462.105Z"/><path d="M845.519 472.066C849.718 471.408 855.121 472.509 855.256 477.623C854.18 478.773 854.324 478.381 852.125 478.461C848.805 478.542 843.745 479.266 841.479 477.144L841.613 475.941C842.943 473.894 843.535 473.607 845.519 472.066Z"/><path fill="#FEFEFE" d="M567.916 462.118C568.651 462.077 569.386 462.049 570.122 462.034C585.574 461.756 589.473 472.872 589.684 485.96C584.816 486.028 567.859 485.512 564.05 486.363L563.729 487.065C566.02 495.493 573.925 495.134 579.623 490.159L580.115 489.721L586.253 493.053C587.374 493.638 587.048 493.429 587.976 494.279C587.805 498.379 580.507 501.947 576.899 502.841C556.96 507.783 544.257 486.544 554.662 470.068C557.641 465.35 562.537 463.201 567.916 462.118Z"/><path d="M569.567 471.542C572.918 471.76 578.268 473.419 576.922 477.713C574.983 478.886 574.421 478.481 571.91 478.481L563.122 478.526L563.425 477.752C565.023 473.776 565.735 473.203 569.567 471.542Z"/><path fill="#FEFEFE" d="M612.15 462.122C628.397 461.263 632.598 472.141 633.061 486.019C628.758 486.039 610.626 485.756 607.473 486.393L607.121 487.35C609.41 495.547 618.223 495.104 623.556 489.642C625.569 490.872 627.764 492.08 629.821 493.261L631.367 494.215L631.376 495.125C628.788 498.904 626.649 500.596 622.282 502.112C592.831 512.341 582.149 466.747 612.15 462.122Z"/><path d="M611.305 472.038C615.451 471.473 620.432 472.699 620.649 477.618C619.426 478.795 619.853 478.424 617.625 478.494C614.595 478.551 609.114 479.354 607.211 476.856C607.762 474.388 609.179 473.515 611.305 472.038Z"/><path fill="#20D0E6" d="M669.652 449.416C681.787 449.284 693.922 449.266 706.057 449.363L706.075 459.459L682.467 459.489L682.49 472.369C689.543 472.161 696.888 472.218 703.966 472.183L703.958 479.625C703.861 481.004 704.137 480.407 703.3 481.51C699.321 482.34 687.163 482.012 682.505 481.981L682.508 502.633L669.98 502.606L669.652 449.416Z"/><path fill="#FEFEFE" d="M418.424 462.124C438.451 461.125 433.358 488.633 433.379 502.49L420.945 502.475C420.995 495.256 424.482 462.037 409.246 474.79C408.437 478.395 408.914 497.598 408.968 502.492L396.496 502.504L396.479 462.999C399.903 462.928 404.255 462.703 407.566 463.106C408.882 464.606 407.675 465.379 408.712 467.866C411.833 464.17 412.962 463.299 417.765 462.261L418.424 462.124Z"/><path fill="#FEFEFE" d="M529.953 462.137C549.778 461.849 544.584 488.382 544.53 502.486L532.254 502.478C532.329 495.64 535.722 461.44 520.498 474.963C519.901 478.667 520.382 497.671 520.431 502.494L507.951 502.481L507.779 463.068C511.911 463.097 515.191 462.103 518.682 463.471C520.016 465.035 519.605 465.216 519.895 467.719C523.577 463.846 524.792 463.081 529.953 462.137Z"/><path fill="#FEFEFE" d="M656.91 462.141C666.357 461.434 663.586 466.28 663.435 474.15C646.184 471.163 651.49 489.78 651.537 502.482L641.375 502.492C640.246 502.497 640.588 502.512 639.479 502.193C638.384 498.215 639.048 468.734 639.013 463.035C641.943 463.019 649.277 462.166 651.201 464.062C651.292 465.753 651.052 465.23 651.777 466.592C653.625 464.56 654.467 463.56 656.91 462.141Z"/><path fill="#4D9DD7" d="M776.01 462.16C779.832 462.156 780.92 463.014 780.73 467.084C780.622 469.393 780.542 471.748 780.498 474.064C765.231 473.154 768.94 480.557 768.801 492.31C768.761 495.681 768.89 499.126 768.924 502.498L756.683 502.508C756.365 500.032 756.533 492.409 756.531 489.561L756.527 463.081C759.036 463.064 761.58 462.761 764.084 462.786C767.578 462.822 768.293 463.099 768.856 466.452C771.559 463.984 771.998 463.112 775.466 462.284L776.01 462.16Z"/><path fill="#A7A6A6" d="M892.597 463.404C897.311 463.399 897.393 462.808 899.18 467.36C903.706 478.892 908.004 490.51 912.73 501.962L907.097 501.951C906.165 499.241 905.077 494.396 903.2 492.293C902.216 491.19 900.756 491.521 899.125 491.5L887.314 491.492C886.295 494.389 885.224 498.51 883.308 500.869C882.297 502.114 879.633 502.493 878.437 501.187C879.101 498.033 881.877 491.739 883.148 488.447C886.367 480.126 889.517 471.778 892.597 463.404Z"/><path d="M895.138 469.841C896.034 471.005 900.878 484.736 901.739 487.094L896.625 487.055L888.931 486.985C890.328 482.165 893.305 474.562 895.138 469.841Z"/><path fill="#FEFEFE" d="M487.002 462.941C491.086 462.875 495.332 462.936 499.431 462.936L499.442 502.466L487 502.48L487.002 462.941Z"/><path fill="#A7A6A6" d="M523.608 546.563C528.19 546.351 527.399 546.675 531.276 548.588C531.859 547.877 532.386 547.283 533.005 546.603L533.958 546.595C536.565 549.026 534.849 558.024 535.409 561.531C537.19 572.702 527.135 581.536 518.302 571.74C522.371 569.174 522.385 573.622 526.609 572.766C529.076 572.265 533.471 569.305 532.235 566.414C529.978 565.209 514.24 572.667 517.88 553.042C518.472 549.85 520.982 548.103 523.608 546.563Z"/><path d="M525.889 549.118C528.376 549.483 530.481 550.195 531.39 552.682C533.515 558.495 532.391 562.633 526.81 564.941C523.689 564.255 521.981 563.226 520.861 560.091C520.031 557.826 520.155 555.321 521.204 553.148C522.344 550.76 523.573 550.021 525.889 549.118Z"/><path fill="#A7A6A6" d="M734.305 537.79C735.521 537.903 735.997 538.032 737.191 538.326C737.758 540.927 737.573 564.26 737.183 567.255C735.451 567.548 736.22 567.729 734.761 567.11L734.259 565.486C729.036 566.536 731.842 569.269 723.928 566.941C714.951 559.323 720.852 541.408 731.653 547.635L733.91 548.911C734.728 547.887 734.331 539.605 734.305 537.79Z"/><path d="M726.413 549.482C731.023 549.048 731.644 549.637 734.324 553.327C734.519 558.773 735.453 561.748 730.429 564.96C720.985 565.298 720.418 554.871 726.413 549.482Z"/><path fill="#A7A6A6" d="M657.547 537.784L659.825 538.148C661.797 540.277 660.791 545.831 660.667 549.211C672.051 540.873 679.255 553.908 673.404 564.788C667.762 570.341 666.566 566.802 661.413 565.622C660.518 566.834 660.573 566.769 659.318 567.608L658.439 567.354C656.713 564.876 657.514 542.365 657.547 537.784Z"/><path d="M664.106 549.484C664.466 549.439 664.827 549.401 665.188 549.369C673.731 548.662 674.236 559.464 668.749 564.68C659.084 566.116 658.089 554.954 664.106 549.484Z"/><path fill="#A7A6A6" d="M358.546 561.865C360.616 556.881 363.728 541.599 366.831 539.662L367.835 540.082C370.363 543.84 373.16 557.061 374.442 562.251C376.126 556.782 378.235 544.054 380.965 540.173C382.373 539.648 381.673 539.682 383.138 540.084C383.627 541.778 382.585 544.409 382.059 546.243C381.056 550.001 377.714 566.443 374.53 567.453C371.812 565.566 368.381 549.698 366.573 545.306C365.019 551.596 362.835 559.443 360.671 565.622C360.137 567.146 359.923 566.994 358.876 567.354C355.467 565.511 350.79 544.317 349.925 539.578C353.171 539.562 353.35 539.539 354.251 542.792C355.98 549.03 357.219 555.538 358.546 561.865Z"/><path fill="#A7A6A6" d="M845.976 539.368C846.273 539.429 846.569 539.49 846.866 539.551C850.026 540.903 859.132 566.643 858.679 567.729L857.399 568.246C856.314 567.241 854.089 562.422 852.921 560.912C851.915 559.613 850.839 560.005 849.018 560.006L841.303 560.001C840.313 562.45 839.293 564.886 838.242 567.309C836.808 567.565 836.912 567.553 835.558 566.994C835.459 564.826 844.561 542.687 845.976 539.368Z"/><path d="M846.807 544.895C848.024 546.393 850.87 554.469 851.301 556.432C850.409 557.122 849.736 556.916 848.368 557.02C847.01 557.08 843.712 557.533 843.298 556.003C842.603 553.431 845.798 547.505 846.807 544.895Z"/><path fill="#A7A6A6" d="M416.147 546.538C424.753 546.578 426.422 550.462 426.673 558.158C422.87 558.143 415.745 557.436 412.459 558.57C412.129 559.763 412.043 560.37 412.841 561.457C416.058 565.838 419.433 565.328 423.286 563.184L423.817 562.572L424.899 562.705L425.538 563.613C425.268 564.899 424.678 565.992 423.423 566.572C413.409 571.195 406.196 562.404 409.684 552.762C410.972 549.202 412.859 548.07 416.147 546.538Z"/><path d="M415.622 549.507C419.035 549.208 424.948 551.037 422.776 555.182L421.125 555.368C418.386 555.459 414.388 556.052 412.421 554.277L412.476 553.003C413.638 551.104 413.884 550.982 415.622 549.507Z"/><path fill="#A7A6A6" d="M481.559 546.524C490.199 546.185 491.944 550.635 492.54 558.145C489.432 558.102 481.104 557.684 478.434 558.336C477.378 559.527 477.593 558.86 477.67 560.366C478.611 562.13 480.109 563.533 481.932 564.355C483.924 565.275 485.284 564.827 487.225 564.191C488.767 562.977 489.379 562.172 491.168 563.281L490.97 564.47C481.033 576.614 464.638 555.009 481.559 546.524Z"/><path d="M481.372 549.464C484.96 549.262 488.322 550.254 488.782 554.307C487.502 555.61 488.294 555.155 486.125 555.32C483.552 555.425 480.141 555.921 478.112 554.488L478.026 553.308C479.135 551.277 479.586 551.041 481.372 549.464Z"/><path fill="#A7A6A6" d="M451.764 546.562C455.138 546.928 457.763 547.827 459.577 550.745C467.119 562.878 450.461 556.165 446.937 558.695C446.106 560.779 446.139 559.779 446.576 561.78C449.621 565.187 454.009 565.614 457.808 563.231L458.062 562.81L459.053 562.592L459.968 563.318L459.877 564.462C456.44 570.377 445.833 568.496 443.699 560.817C442.789 557.52 443.232 553.996 444.929 551.026C446.685 548.013 448.597 547.34 451.764 546.562Z"/><path d="M450.419 549.511C453.858 549.327 457.535 550.371 457.508 554.473C456.338 555.662 456.768 555.29 454.625 555.454C451.807 555.552 448.917 556.127 446.899 554.259L446.955 553.012C448.264 551.035 448.47 550.96 450.419 549.511Z"/><path fill="#A7A6A6" d="M600.13 546.559C608.342 547.154 609.287 550.859 609.96 558.122C607.112 558.061 597.529 557.536 595.572 558.561C594.215 562.438 600.424 566.723 604.752 563.938C606.32 562.777 606.498 562.475 608.274 562.977L608.508 563.865C607.854 565.22 606.87 566.514 605.388 567.018C591.533 571.732 585.848 551.489 600.13 546.559Z"/><path d="M599.46 549.467C602.92 549.373 606.164 550.585 606.334 554.485C605.054 555.718 605.844 555.264 603.625 555.379C601.035 555.456 597.398 556.103 595.666 553.919L595.822 552.682C597.166 550.853 597.508 550.749 599.46 549.467Z"/><path fill="#A7A6A6" d="M578.562 546.498C586.766 546.827 588.095 550.864 589.058 558.138C586.087 558.11 576.197 557.248 574.327 558.728C573.519 562.538 579.082 566.87 583.844 563.956C585.674 562.635 584.718 562.92 586.691 562.698L587.458 563.436C587.179 564.98 586.073 566.306 584.618 566.874C570.49 572.388 565.073 551.986 578.562 546.498Z"/><path d="M577.905 549.561C581.534 549.328 584.526 550.194 585.173 554.213C584.11 555.543 584.816 555.02 582.625 555.312C579.772 555.429 577.098 555.948 574.799 554.357L574.676 553.183C575.619 551.289 576.235 550.974 577.905 549.561Z"/><path fill="#A7A6A6" d="M771.485 562.774C772.48 558.589 774.169 550.364 775.916 546.904C777.428 546.49 776.688 546.503 778.219 546.877C778.686 548.545 777.952 550.038 777.413 551.774C776.528 554.976 774.135 567.658 770.482 566.679C767.958 563.827 765.886 555.063 764.714 551.052C763.651 554.569 761.143 565.957 758.97 567.456L758.137 567.101C755.548 563.98 751.8 550.64 751.107 546.516C752.37 546.517 752.394 546.474 753.588 546.83C755.915 550.122 757.49 558.276 758.474 562.474C759.381 559.242 761.904 546.739 765.412 547.284C767.925 549.881 770.105 558.751 771.485 562.774Z"/><path fill="#A7A6A6" d="M917.985 463.478C919.562 463.471 921.888 463.224 923.06 464.06C923.839 472.055 923.189 492.93 923.145 501.844C921.412 501.891 919.703 502.204 918.339 501.317C917.653 498.13 917.976 468.953 917.985 463.478Z"/><path fill="#A7A6A6" d="M387.56 537.917C389.928 538.159 389.45 537.734 390.69 539.091C391.435 542.083 390.926 545.786 390.844 548.955C404.894 539.917 406.551 559.023 403.591 567.455L402.648 567.776L401.695 567.202C400.344 565.215 400.891 558.026 400.915 555.061C400.798 553.717 400.762 551.607 399.589 550.808C387.523 542.594 392.117 564.313 390.4 567.351C389.135 567.533 389.123 567.658 387.993 567.139C387.098 565.596 387.549 541.776 387.56 537.917Z"/><path fill="#A7A6A6" d="M804.724 538.082C805.521 538.202 806.939 538.234 807.326 538.736C808.728 540.552 807.885 546.83 807.775 549.379C824.374 537.452 822.717 565.967 819.661 567.823L818.755 567.318C817.872 565.98 817.828 565.895 817.853 564.272L817.979 553.875C817.453 551.103 815.33 548.799 812.528 549.025C804.895 549.64 810.26 563.844 806.513 567.546L805.149 567.392C804.396 566.178 804.541 541.292 804.724 538.082Z"/><path fill="#A7A6A6" d="M550.193 546.346L552.366 546.665C552.523 546.887 553.634 548.52 553.899 548.382C563.604 543.329 566.712 548.46 566.678 557.94C566.667 560.871 567.052 564.466 565.948 567.347L565.055 567.696L564.122 567.265C562.866 565.199 563.365 557.365 563.367 554.246C562.875 551.43 560.82 548.642 557.787 548.902C550.199 549.552 555.816 563.717 551.929 567.467L550.745 567.405C549.647 565.776 550.038 549.377 550.193 546.346Z"/><path fill="#A7A6A6" d="M679.754 546.512C680.063 546.528 682.644 546.743 682.723 546.973C683.928 550.512 680.752 566.508 687.836 565.509C697.306 564.174 691.397 550.427 694.165 546.409L695.273 546.61C696.848 548.192 696.374 547.512 696.502 550.375C696.444 553.818 697.607 566.103 695.303 567.986C694.181 567.631 693.802 566.816 692.876 565.764C691.721 566.269 689.173 567.797 688.113 567.884C677.381 568.763 679.664 553.966 679.754 546.512Z"/><path fill="#A7A6A6" d="M632.576 546.541C636.307 546.36 640.079 546.873 642.58 549.972C642.857 551.825 643.046 551.022 642.232 552.505C639.314 552.484 633.591 545.725 630.521 551.717C632.291 556.647 643.51 556.176 643.243 562.662C642.075 565.436 640.28 566.487 637.585 567.615C632.351 567.838 629.011 567.843 626.835 562.531L627.04 562.104C629.943 561.649 637.024 568.577 640.048 562.357C638.329 557.622 617.372 555.411 632.576 546.541Z"/><path fill="#FEFEFE" d="M490.817 446.656C492.953 445.816 495.377 446.214 497.132 447.694C498.886 449.174 499.688 451.496 499.22 453.743C498.752 455.99 497.09 457.799 494.89 458.455C491.683 459.412 488.291 457.671 487.199 454.508C486.107 451.344 487.703 447.881 490.817 446.656Z"/><path fill="#A7A6A6" d="M792.884 541.524C795.01 541.643 794.856 541.3 796.312 542.334C795.997 544.703 795.761 544.909 797.246 546.604C798.53 546.569 799.169 546.373 800.197 547.071C800.404 548.739 800.613 548.013 799.945 549.372C799.207 549.395 797.24 549.391 797.005 549.806C795.868 551.818 795.988 562.649 797.252 564.153C800.085 564.892 800.083 564.356 801.373 566.978C788.811 572.149 795.083 553.026 792.465 549.545L790.282 549.498C789.179 548.479 789.597 549.117 789.458 547.236C790.326 546.186 790.588 546.526 792.464 546.333C793.344 545.033 792.943 543.391 792.884 541.524Z"/><path fill="#A7A6A6" d="M499.14 546.517L500.115 548.466C503.735 547.923 508.271 542.815 512.105 550.438C513.724 553.658 514.591 565.173 511.331 567.438L510.241 567.317C508.628 563.496 511.585 552.952 507.133 549.055C504.402 548.217 501.852 549.988 500.063 551.981C499.294 549.74 499.33 548.931 499.14 546.517Z"/><path fill="#A7A6A6" d="M711.452 537.897L713.759 538.17C715.33 539.844 714.608 563.267 714.587 567.61C712.92 567.449 712.913 567.712 711.71 566.869C710.984 561.702 711.425 544.114 711.452 537.897Z"/><path fill="#A7A6A6" d="M863.649 539.821L866.255 540.203C867.564 541.744 866.939 564.262 866.946 567.836C865.461 567.662 865.1 567.77 863.905 566.887C863.228 563.244 863.615 544.74 863.649 539.821Z"/><path fill="#A7A6A6" d="M437.481 546.516C438.9 546.438 439.359 546.528 440.751 546.693L440.567 546.769L441.698 547.464C440.751 549.11 436.474 550.175 435.34 551.513C432.188 555.234 436.994 564.892 432.721 568.224L431.572 566.938C431.059 563.852 430.356 549.524 431.472 547.194C433.626 546.218 432.64 547.86 435.542 548.205L437.481 546.516Z"/><path fill="#A7A6A6" d="M620.29 546.454C622.237 546.372 622.49 546.028 623.924 546.837L624.202 548.274C623.144 550.129 620.008 549.536 618.738 550.843C615.039 554.646 620.221 564.947 615.699 568.173L614.805 567.333C614.021 565.322 613.901 549.803 614.636 547.402C616.342 546.581 615.873 547.774 618.552 548.19L620.29 546.454Z"/><path fill="#A7A6A6" d="M702.011 546.792C703.414 546.853 704.2 546.726 705.322 547.549C705.86 551.722 705.578 562.879 705.566 567.572C703.818 567.422 703.394 567.705 702.294 566.795C701.739 561.948 702.002 552.04 702.011 546.792Z"/><path fill="#A7A6A6" d="M541.145 546.625C542.443 546.71 542.42 546.658 543.604 547.157C545.013 549.91 544.423 563.296 544.47 567.663C542.943 567.554 542.681 567.519 541.201 567.142C540.643 563.693 541.041 550.73 541.145 546.625Z"/><path fill="#A7A6A6" d="M782.603 546.689C784.38 546.871 784.884 546.579 785.889 547.546C786.418 552.323 786.102 562.384 786.069 567.573C784.596 567.481 784.392 567.63 783.194 566.862C782.616 563.038 782.756 551.446 782.603 546.689Z"/><path fill="#A7A6A6" d="M500.063 551.981C499.049 556.109 500.374 564.756 499.456 566.91C498.05 567.791 498.777 567.666 497.22 567.398C496.312 565.824 496.245 548.73 496.966 547.133L499.14 546.517C499.33 548.931 499.294 549.74 500.063 551.981Z"/><path fill="#A7A6A6" d="M703.013 539.265C703.752 538.953 704.604 539.08 705.219 539.595C705.834 540.11 706.11 540.926 705.932 541.709C705.754 542.491 705.154 543.108 704.377 543.307C703.292 543.585 702.177 542.979 701.819 541.919C701.462 540.858 701.982 539.701 703.013 539.265Z"/><path fill="#A7A6A6" d="M784.039 539.216C785.082 538.964 786.143 539.562 786.468 540.585C786.793 541.608 786.272 542.708 785.275 543.105C784.563 543.387 783.754 543.25 783.176 542.747C782.599 542.245 782.35 541.462 782.532 540.719C782.713 539.975 783.295 539.396 784.039 539.216Z"/></svg>