<?xml version="1.0" encoding="utf-8" ?><svg xmlns="http://www.w3.org/2000/svg" xmlns:xlink="http://www.w3.org/1999/xlink" width="1024" height="1024" viewBox="0 0 1024 1024"><path d="M0 0L1024 0L1024 1024L0 1024L0 0Z"/><path d="M476.833 220.283C496.172 218.885 527.864 219.047 547.303 220.077C547.793 225.367 550.039 233.919 551.311 239.252C553.547 248.791 555.868 258.309 558.274 267.805C569.362 269.314 583.78 273.897 594.343 277.409C605.268 265.579 617.033 253.904 628.159 242.017C643.75 249.484 659.048 258.987 674.094 267.527C679.242 270.449 684.652 273.635 689.542 276.943C684.711 292.67 680.384 308.642 675.535 324.424C684.866 332.117 693.713 341.438 701.982 350.209L715.552 346.238C726.56 342.865 737.953 339.761 748.841 336.191C754.658 345.072 767.875 366.788 772.315 376.075C775.14 380.089 782.231 393.009 784.308 397.575L749.191 431.021C752.434 443.529 755.884 454.395 758.751 467.306C774.361 471.107 789.716 475.181 805.397 478.833C806.351 493.671 806.695 508.542 806.428 523.408C806.263 532.009 805.563 540.701 805.416 549.188C791.87 552.126 772.081 556.786 758.788 560.593C755.947 573.125 752.682 584.572 749.071 596.869C760.658 608.251 772.314 619.564 784.036 630.808C775.388 648.096 764.348 664.923 754.67 681.661C752.755 684.972 750.636 688.486 748.526 691.671C733.461 686.798 717.119 682.249 701.807 678.032C692.81 687.436 685.369 695.042 675.547 703.661C680.415 719.57 685.047 735.549 689.442 751.595C669.145 763.252 648.751 774.74 628.264 786.059C618.087 774.255 605.809 761.949 594.883 750.617C582.261 754.189 571.56 757.118 558.684 759.799C554.831 772.784 549.253 793.809 546.726 807.03C522.132 808.123 501.889 808.391 477.095 806.969C473.95 792.857 469.27 773.588 465.155 759.736C452.496 757.375 441.617 754.395 429.297 750.383C427.489 752.178 419.01 760.986 417.534 762.087C411.353 769.338 401.927 778.735 395.219 785.852C379.726 778.115 364.619 768.847 349.482 760.411C344.359 757.556 338.947 754.493 334.098 751.209C335.918 746.044 337.156 740.68 339.098 735.347C339.356 733.304 341.602 726.094 342.245 723.914C344.254 717.226 346.168 710.509 347.986 703.766C338.076 694.866 330.768 687.84 321.737 678.009C306.939 681.605 289.364 687.186 274.662 691.531C263.834 673.621 248.591 649.395 239.508 630.59C251.309 619.875 263.389 607.885 274.919 596.797C270.932 585.914 267.463 572.175 264.949 560.903C250.472 556.685 232.942 552.869 218.049 549.271C217.038 528.245 216.651 499.104 218.602 478.476C232.815 475.556 251.293 470.986 265.221 467.225C267.735 455.001 270.914 442.925 274.744 431.048C262.991 420.293 250.826 408.452 239.325 397.4C242.314 391.089 246.966 383.293 250.473 377.141C258.362 363.296 266.475 349.58 274.81 335.999L321.912 349.915C331.383 339.864 337.702 333.221 348.094 324.131C343.284 308.296 338.623 292.415 334.113 276.492C351.185 265.644 377.879 250.51 395.686 241.511C406.552 253.571 417.625 265.442 428.902 277.119C442.063 273.058 452.149 270.373 465.544 267.726C468.946 255.009 474.541 233.05 476.833 220.283Z"/><defs><linearGradient id="gradient_0" gradientUnits="userSpaceOnUse" x1="545.95178" y1="545.63654" x2="296.21634" y2="314.49634"><stop offset="0" stop-color="#8964C1"/><stop offset="1" stop-color="#1DD8DE"/></linearGradient></defs><path fill="url(#gradient_0)" d="M476.833 220.283C496.172 218.885 527.864 219.047 547.303 220.077C547.793 225.367 550.039 233.919 551.311 239.252C553.547 248.791 555.868 258.309 558.274 267.805C569.362 269.314 583.78 273.897 594.343 277.409C605.268 265.579 617.033 253.904 628.159 242.017C643.75 249.484 659.048 258.987 674.094 267.527C679.242 270.449 684.652 273.635 689.542 276.943C684.711 292.67 680.384 308.642 675.535 324.424C684.866 332.117 693.713 341.438 701.982 350.209L715.552 346.238C718.841 347.662 730.609 341.297 733.643 342.651L733.565 343.49C733.379 343.634 730.314 345.568 730.943 344.488C727.141 351.106 722.553 352.484 716.735 356.447C716.291 356.75 714.5 364.203 713.195 364.882C710.812 366.122 699.924 367.855 699.532 369.775C697.82 370.334 697.051 370.921 695.562 370.592C692.725 367.686 690.201 364.65 687.655 361.493C678.244 349.823 666.704 339.964 655.184 330.466L663.693 300.647C665.015 296.042 666.788 289.187 668.408 284.789L631.954 264.257C621.081 275.494 610.296 286.816 599.6 298.222C579.948 290.882 564.091 286.455 543.277 283.063C540.575 270.387 535.944 249.911 532.331 237.572C519.86 237.602 503.592 238.101 491.389 237.554L480.289 283.308C463.283 285.74 439.704 291.707 423.778 298.381C413.255 286.754 402.516 275.325 391.566 264.099C380.008 271.177 367.13 277.714 355.302 284.629C360.047 299.128 364.398 315.951 368.666 330.762C352.119 343.258 341.182 355.023 327.993 370.88C314.944 366.037 296.492 361.492 282.699 357.182L261.559 393.504C272.603 403.932 285.169 415.283 295.845 425.964C288.509 444.001 283.465 462.887 280.833 482.18C265.611 485.956 250.346 489.551 235.04 492.967L235.22 535.18C247.418 537.765 269.23 542.356 280.811 545.746C284.086 565.943 288.127 583.04 295.906 602.152C284.606 612.512 272.575 623.641 261.724 634.454C268.616 646.556 275.631 658.587 282.768 670.545C297.824 666.14 313.226 661.572 328.338 657.443C336.74 667.468 343.855 675.571 353.367 684.594C356.442 687.512 366.83 695.442 368.323 697.738C368.008 699.627 367.973 699.806 367.29 701.583C366.223 702.114 365.95 702.531 365.572 703.996C363.62 711.566 360.685 720.331 359.137 727.84C358.175 732.508 354.828 737.794 354.812 740.901C352.36 740.412 349.852 739.314 347.827 739.92C342.343 743.789 343.284 752.138 341.194 753.956L341.481 753.961C339.472 754.202 337.135 752.123 335.326 750.855C336.253 747.805 339.638 738.12 339.098 735.347C339.356 733.304 341.602 726.094 342.245 723.914C344.254 717.226 346.168 710.509 347.986 703.766C338.076 694.866 330.768 687.84 321.737 678.009C306.939 681.605 289.364 687.186 274.662 691.531C263.834 673.621 248.591 649.395 239.508 630.59C251.309 619.875 263.389 607.885 274.919 596.797C270.932 585.914 267.463 572.175 264.949 560.903C250.472 556.685 232.942 552.869 218.049 549.271C217.038 528.245 216.651 499.104 218.602 478.476C232.815 475.556 251.293 470.986 265.221 467.225C267.735 455.001 270.914 442.925 274.744 431.048C262.991 420.293 250.826 408.452 239.325 397.4C242.314 391.089 246.966 383.293 250.473 377.141C258.362 363.296 266.475 349.58 274.81 335.999L321.912 349.915C331.383 339.864 337.702 333.221 348.094 324.131C343.284 308.296 338.623 292.415 334.113 276.492C351.185 265.644 377.879 250.51 395.686 241.511C406.552 253.571 417.625 265.442 428.902 277.119C442.063 273.058 452.149 270.373 465.544 267.726C468.946 255.009 474.541 233.05 476.833 220.283Z"/><defs><linearGradient id="gradient_1" gradientUnits="userSpaceOnUse" x1="741.49622" y1="697.29401" x2="586.71045" y2="559.27722"><stop offset="0" stop-color="#F44776"/><stop offset="1" stop-color="#AB60B0"/></linearGradient></defs><path fill="url(#gradient_1)" d="M756.886 384.912C757.388 383.256 757.088 380.766 758.01 380.18C759.886 378.987 768.4 373.935 770.142 374.146C770.838 375.181 771.264 375.403 772.315 376.075C775.14 380.089 782.231 393.009 784.308 397.575L749.191 431.021C752.434 443.529 755.884 454.395 758.751 467.306C774.361 471.107 789.716 475.181 805.397 478.833C806.351 493.671 806.695 508.542 806.428 523.408C806.263 532.009 805.563 540.701 805.416 549.188C791.87 552.126 772.081 556.786 758.788 560.593C755.947 573.125 752.682 584.572 749.071 596.869C760.658 608.251 772.314 619.564 784.036 630.808C775.388 648.096 764.348 664.923 754.67 681.661C752.755 684.972 750.636 688.486 748.526 691.671C733.461 686.798 717.119 682.249 701.807 678.032C692.81 687.436 685.369 695.042 675.547 703.661C680.415 719.57 685.047 735.549 689.442 751.595C669.145 763.252 648.751 774.74 628.264 786.059C618.087 774.255 605.809 761.949 594.883 750.617C582.261 754.189 571.56 757.118 558.684 759.799C554.831 772.784 549.253 793.809 546.726 807.03C522.132 808.123 501.889 808.391 477.095 806.969C473.95 792.857 469.27 773.588 465.155 759.736C452.496 757.375 441.617 754.395 429.297 750.383C427.489 752.178 419.01 760.986 417.534 762.087C417.167 759.856 420.755 755.872 420.44 755.124C415.555 743.562 426.946 742.106 433.756 736.344C435.225 735.101 435.488 734.998 437.894 734.246C453.177 739.128 464.579 741.992 480.7 743.869C483.705 758.765 487.79 774.784 491.315 789.671C504.929 789.798 518.544 789.848 532.158 789.821C536.081 774.558 539.887 759.265 543.575 743.943C565.514 740.959 578.929 736.887 599.674 729.253L631.749 763.587C643.637 756.549 656.358 749.722 668.496 743.016C663.888 728.551 658.944 711.952 655.186 697.292C671.895 684.267 681.945 673.195 695.414 657.292C709.268 661.898 726.541 666.133 740.967 670.517C748.081 658.614 755.028 646.613 761.807 634.516C750.748 623.317 738.899 612.875 727.82 601.803C734.166 585.605 741.003 563.262 742.776 545.836C747.462 544.328 754.508 542.89 759.438 541.753L788.456 535.086L788.462 493.262C773.247 489.436 758.001 485.73 742.728 482.143C740.441 463.181 734.464 443.814 727.988 425.926C739.33 415.222 750.591 404.433 761.771 393.56C760.327 390.732 758.487 387.688 756.886 384.912Z"/><defs><linearGradient id="gradient_2" gradientUnits="userSpaceOnUse" x1="411.95135" y1="766.3363" x2="364.32761" y2="721.54504"><stop offset="0" stop-color="#B05FAC"/><stop offset="1" stop-color="#8D69BE"/></linearGradient></defs><path fill="url(#gradient_2)" d="M335.326 750.855C337.135 752.123 339.472 754.202 341.481 753.961L341.194 753.956C343.284 752.138 342.343 743.789 347.827 739.92C349.852 739.314 352.36 740.412 354.812 740.901C354.828 737.794 358.175 732.508 359.137 727.84C360.685 720.331 363.62 711.566 365.572 703.996C365.95 702.531 366.223 702.114 367.29 701.583C364.416 713.475 359.311 731.496 355.498 743.161C367.254 749.743 380.378 756.718 391.847 763.557C402.709 752.266 413.42 740.832 423.977 729.256L437.894 734.246C435.488 734.998 435.225 735.101 433.756 736.344C426.946 742.106 415.555 743.562 420.44 755.124C420.755 755.872 417.167 759.856 417.534 762.087C411.353 769.338 401.927 778.735 395.219 785.852C379.726 778.115 364.619 768.847 349.482 760.411C344.359 757.556 338.947 754.493 334.098 751.209C335.918 746.044 337.156 740.68 339.098 735.347C339.638 738.12 336.253 747.805 335.326 750.855Z"/><defs><linearGradient id="gradient_3" gradientUnits="userSpaceOnUse" x1="758.04919" y1="382.7518" x2="727.62433" y2="346.42044"><stop offset="0" stop-color="#AA61A8"/><stop offset="1" stop-color="#8E6ABB"/></linearGradient></defs><path fill="url(#gradient_3)" d="M715.552 346.238C726.56 342.865 737.953 339.761 748.841 336.191C754.658 345.072 767.875 366.788 772.315 376.075C771.264 375.403 770.838 375.181 770.142 374.146C768.4 373.935 759.886 378.987 758.01 380.18C757.088 380.766 757.388 383.256 756.886 384.912C751.742 375.681 746.463 366.526 741.051 357.45C738.625 358.376 735.601 359.257 733.071 359.946C721.981 362.969 710.687 367.178 699.532 369.775C699.924 367.855 710.812 366.122 713.195 364.882C714.5 364.203 716.291 356.75 716.735 356.447C722.553 352.484 727.141 351.106 730.943 344.488C730.314 345.568 733.379 343.634 733.565 343.49L733.643 342.651C730.609 341.297 718.841 347.662 715.552 346.238Z"/><path d="M399.286 354.689C442.939 323.773 497.389 312.176 549.851 322.622C602.314 333.068 648.169 364.636 676.651 409.915C724.759 486.396 713.936 585.923 650.514 650.276C587.091 714.629 487.732 726.899 410.559 679.909C364.501 651.865 332.135 605.977 321.173 553.18C310.21 500.382 321.633 445.403 352.719 401.341C365.477 383.257 381.225 367.48 399.286 354.689Z"/><defs><linearGradient id="gradient_4" gradientUnits="userSpaceOnUse" x1="546.80743" y1="548.50903" x2="375.76755" y2="377.707"><stop offset="0" stop-color="#905DC0"/><stop offset="1" stop-color="#36B8D6"/></linearGradient></defs><path fill="url(#gradient_4)" d="M399.286 354.689C442.939 323.773 497.389 312.176 549.851 322.622C602.314 333.068 648.169 364.636 676.651 409.915C676.779 411.648 676.973 412.063 677.624 413.611L677.303 414.07C672.374 414.07 667.502 419.576 665.757 423.978C664.683 422.991 665.044 423.422 664.437 422.015L663.327 421.595C624.857 358.287 551.073 325.583 478.33 339.596C405.588 353.609 349.234 411.384 337.037 484.453C324.839 557.521 359.37 630.468 423.616 667.35C423.94 666.875 421.486 670.417 421.984 669.892C418.266 673.804 416.625 672.499 414.112 677.83C414.504 679.547 414.568 679.603 415.315 681.104L414.769 681.456C412.514 680.218 412.617 679.727 410.559 679.909C364.501 651.865 332.135 605.977 321.173 553.18C310.21 500.382 321.633 445.403 352.719 401.341C365.477 383.257 381.225 367.48 399.286 354.689Z"/><path fill="#3AB9D5" d="M352.719 401.341C365.477 383.257 381.225 367.48 399.286 354.689L399.586 355.596C396.043 358.258 394.149 364.072 391.334 365.966C384.418 370.62 380.849 374.095 375.635 380.645C374.566 381.988 368.748 384.979 367.369 386.588C364.524 390.667 367.817 391.035 361.651 392.326C361.018 392.458 354.822 400.848 352.719 401.341Z"/><defs><linearGradient id="gradient_5" gradientUnits="userSpaceOnUse" x1="652.34894" y1="646.72784" x2="540.37555" y2="541.75861"><stop offset="0" stop-color="#D8508D"/><stop offset="1" stop-color="#9A67BB"/></linearGradient></defs><path fill="url(#gradient_5)" d="M676.651 409.915C724.759 486.396 713.936 585.923 650.514 650.276C587.091 714.629 487.732 726.899 410.559 679.909C412.617 679.727 412.514 680.218 414.769 681.456L415.315 681.104C414.568 679.603 414.504 679.547 414.112 677.83C416.625 672.499 418.266 673.804 421.984 669.892C421.486 670.417 423.94 666.875 423.616 667.35C493.759 707.617 582.264 695.293 638.737 637.395C695.211 579.498 705.327 490.713 663.327 421.595L664.437 422.015C665.044 423.422 664.683 422.991 665.757 423.978C667.502 419.576 672.374 414.07 677.303 414.07L677.624 413.611C676.973 412.063 676.779 411.648 676.651 409.915Z"/><defs><linearGradient id="gradient_6" gradientUnits="userSpaceOnUse" x1="542.93536" y1="614.17407" x2="409.61502" y2="478.55716"><stop offset="0" stop-color="#B84DAE"/><stop offset="1" stop-color="#4F86D1"/></linearGradient></defs><path fill="url(#gradient_6)" d="M457.531 429.859C470.931 429.789 484.832 429.559 498.184 429.884C515.406 472.169 535.754 513.953 553.724 555.98C556.888 563.379 561.326 571.47 563.708 579.064C564.994 580.45 569.402 591.186 570.571 593.592C563.2 593.583 553.959 593.832 546.741 593.471C542.314 593.865 532.248 593.605 527.526 593.612C522.742 582.778 517.964 570.618 513.544 559.597C489.852 559.612 464.39 560.179 440.933 559.652C436.597 570.947 431.545 582.437 426.811 593.604L385.529 593.669L416.692 522.899C430.577 492.006 444.191 460.991 457.531 429.859Z"/><path fill="#B856A0" d="M563.708 579.064C564.994 580.45 569.402 591.186 570.571 593.592C563.2 593.583 553.959 593.832 546.741 593.471C553.104 591.482 561.273 594.234 565.305 591.903C568.482 587.677 563.039 581.998 563.708 579.064Z"/><path d="M477.062 471.335C480.324 477.802 483.995 487.668 486.791 494.708C491.352 506.218 495.981 517.701 500.676 529.156L478.125 529.071L453.433 529.003L477.062 471.335Z"/><defs><linearGradient id="gradient_7" gradientUnits="userSpaceOnUse" x1="651.63312" y1="564.95752" x2="554.11792" y2="458.27005"><stop offset="0" stop-color="#D05194"/><stop offset="1" stop-color="#8367C9"/></linearGradient></defs><path fill="url(#gradient_7)" d="M583.108 429.996L623.315 430.008L623.185 593.602L582.996 593.585L583.108 429.996Z"/></svg>